<svg width="21" height="20" viewBox="0 0 21 20" fill="none" xmlns="http://www.w3.org/2000/svg">
<path d="M5.72405 0H14.2955C15.811 0 17.2645 0.602039 18.3361 1.67368C19.4077 2.74531 20.0098 4.19876 20.0098 5.71429V14.2857C20.0098 15.8012 19.4077 17.2547 18.3361 18.3263C17.2645 19.398 15.811 20 14.2955 20H5.72405C4.20853 20 2.75508 19.398 1.68344 18.3263C0.611805 17.2547 0.00976563 15.8012 0.00976562 14.2857V5.71429C0.00976562 4.19876 0.611805 2.74531 1.68344 1.67368C2.75508 0.602039 4.20853 0 5.72405 0ZM10.0098 14.2857C11.1464 14.2857 12.2365 13.8342 13.0402 13.0305C13.844 12.2267 14.2955 11.1366 14.2955 10C14.2955 8.86336 13.844 7.77327 13.0402 6.96954C12.2365 6.16582 11.1464 5.71429 10.0098 5.71429C8.87312 5.71429 7.78304 6.16582 6.97931 6.96954C6.17558 7.77327 5.72405 8.86336 5.72405 10C5.72405 11.1366 6.17558 12.2267 6.97931 13.0305C7.78304 13.8342 8.87312 14.2857 10.0098 14.2857ZM14.9298 6.34857C15.1 6.35428 15.2697 6.32568 15.4287 6.26447C15.5877 6.20325 15.7327 6.11067 15.8552 5.99224C15.9777 5.87382 16.0751 5.73196 16.1416 5.57511C16.2081 5.41827 16.2424 5.24965 16.2424 5.07929C16.2424 4.90892 16.2081 4.7403 16.1416 4.58346C16.0751 4.42661 15.9777 4.28476 15.8552 4.16633C15.7327 4.0479 15.5877 3.95532 15.4287 3.89411C15.2697 3.83289 15.1 3.80429 14.9298 3.81C14.6005 3.82105 14.2884 3.95961 14.0594 4.19645C13.8304 4.43328 13.7024 4.74984 13.7024 5.07929C13.7024 5.40874 13.8304 5.7253 14.0594 5.96213C14.2884 6.19896 14.6005 6.33752 14.9298 6.34857Z" fill="#DFDFDF"/>
</svg>
