<svg width="50" height="38" viewBox="0 0 50 38" fill="none" xmlns="http://www.w3.org/2000/svg">
<g clip-path="url(#clip0)">
<path fill-rule="evenodd" clip-rule="evenodd" d="M0 31.8498V2.02042C0 0.904576 0.905943 0 2.02349 0H16.9608C18.465 0 19.4434 1.5806 18.7707 2.92399L3.83335 32.7534C2.87844 34.6603 0 33.9818 0 31.8498ZM49.7778 31.8498V2.02042C49.7778 0.904576 48.8717 0 47.7543 0H32.817C31.3128 0 30.3344 1.5806 31.0071 2.92399L45.9445 32.7534C46.8992 34.6603 49.7778 33.9818 49.7778 31.8498ZM25.9006 35.1554V5.32596C25.9006 3.19398 28.7791 2.51549 29.734 4.42243L44.6713 34.2518C45.3439 35.5952 44.3658 37.1758 42.8615 37.1758H27.9241C26.8066 37.1758 25.9006 36.2712 25.9006 35.1554ZM23.8771 5.32596V35.1554C23.8771 36.2712 22.9712 37.1758 21.8537 37.1758H6.91636C5.41214 37.1758 4.43378 35.5952 5.10647 34.2518L20.0438 4.42243C20.9987 2.51549 23.8771 3.19398 23.8771 5.32596Z" fill="url(#paint0_linear)"/>
</g>
<defs>
<linearGradient id="paint0_linear" x1="25.0912" y1="37.1758" x2="25.0912" y2="-4.4317e-06" gradientUnits="userSpaceOnUse">
<stop offset="0.286458" stop-color="white"/>
<stop offset="1" stop-color="white"/>
</linearGradient>
<clipPath id="clip0">
<rect width="49.7778" height="37.1758" fill="white"/>
</clipPath>
</defs>
</svg>
